<svg version="1.2" xmlns="http://www.w3.org/2000/svg" viewBox="290 255 200 200" width="780" height="780"><defs><linearGradient id="P" gradientUnits="userSpaceOnUse"/><linearGradient id="g1" x2="1" href="#P" gradientTransform="matrix(-6.97,-25.488,24.875,-6.802,416.445,358.321)"><stop stop-color="#4492d4"/><stop offset="1" stop-color="#2076a3"/></linearGradient><linearGradient id="g2" x2="1" href="#P" gradientTransform="matrix(-9.138,-15.384,26.934,-15.998,394.135,398.682)"><stop stop-color="#153e69" stop-opacity=".99"/><stop offset="1" stop-color="#285592" stop-opacity="1"/></linearGradient></defs><style>.a{opacity:.02;fill:#448db1}.b{fill:url(#g1)}.c{fill:#399ad2}.d{fill:#296798}.e{fill:#3571a4}.f{fill:#24568d}.g{fill:#163d6f}.h{fill:#51a7ce}.i{fill:url(#g2)}.j{fill:#224d79}.k{fill:#031d47}.l{opacity:.99;fill:#4ba8cf}.m{opacity:.99;fill:#031d47}.n{opacity:.99;fill:#224d79}.o{opacity:.98;fill:#031d47}.p{opacity:.99;fill:#163d6f}.q{opacity:.23;fill:#4ba8cf}.r{fill:#4ba8cf}.s{opacity:.21;fill:#51a7ce}.t{opacity:.77;fill:#66c6e8}.u{fill:#5ab2cf}.v{fill:#66c6e8}.w{fill:#3383b4}.x{opacity:.23;fill:#66c6e8}.y{opacity:.03;fill:#5ab2cf}.z{opacity:.65;fill:#4ba8cf}.A{fill:#448db1}.B{fill:#3e79a4}.C{opacity:.99;fill:#24568d}.D{fill:#4fa3b4}.E{opacity:.01;fill:#5ab2cf}.F{opacity:.03;fill:#3383b4}.G{opacity:.02;fill:#296798}.H{opacity:.98;fill:#4ba8cf}.I{opacity:.01;fill:#3571a4}.J{opacity:.05;fill:#399ad2}.K{opacity:.05;fill:#5ab2cf}.L{opacity:.06;fill:#5ab2cf}.M{opacity:.55;fill:#3e79a4}.N{opacity:.48;fill:#51a7ce}.O{opacity:.02;fill:#5ab2cf}.P{opacity:.68;fill:#4ba8cf}</style><path class="a" d="m395.6 289.6c-2.1-1.9-2.6-0.9-3.4-2.5l0.3-0.4c3.4-0.3 4.5-0.3 7.6-2.1 1.7-1 3.1 0.9 4.1 2.1l0.5-0.7q1 0.2 2.5 0.5c1.7 1.4 3.6 5.2 5.2 6.3l0.9-0.7c3.1 0.6 16.8 12.8 19.3 15.4 0 3.7 0 9.4 0.1 13.2 0 0.8 2.2 2.5 2.7 4.4 0.9 3.4-0.1 9.5 2 11.8 0 0.7-3.6 11.8-4.8 12.7-0.4 0.3-4.5 3.7-4.7 3.9-0.9 1.7 0.1 3.2-1.2 4.9-4.2 5.6-12.5 8.9-12.6 16.4-0.1 1.8 0.4 3.1 0.5 4.1 0.3 1.8-4.6 6.3-6.1 7.8-2.3 0.6-3.6-0.8-4.4 0.1 1.4 1.3 8.1 0.3 8.2 2.2 0.2 7.7 0 15.7-0.1 23.4 0 3.6-7 7.2-10.2 7.4-0.2 0-0.5 1.5-0.4 1.7 0.1 2.1-2 2.5-3.2 3.8-2.7 2.8-8 2.5-11.6 2.1-1.9-0.1-5.4-1.2-6.9-2.6l-0.1-0.5c-0.4-0.9-0.7-1.9-1.2-2.6-0.8-1-7.1-3-6-4.7q0.2-0.5 0.4-1c-2.9-3-7.7 1.5-4.5-9.3 0.6-2-3.6-2.5 0.5-6.1 0.7-3.5-4.6-8.8 0.9-12.7 2.1-1.6 8.2-0.1 10.9-0.4 1.9 0.3 15.5 0.5 16.7-0.3-0.8-0.9-0.3-0.6-1.7-1q-0.4 0-0.8 0c-3.3-0.2-1.7-2-4.5-2.6-1.9 0.7-2 2.5-2.5 2.6-3.9 1-3.1-1.3-7.2 1.3-2.2-2.2-5.8-0.2-9.9-2.4-5.4-2.6-4-8.1-5.7-13-3.7-10.6-10.3-7.3-14.2-19.6-0.9 0.1-1.1 0-2-0.1-1.1-3.4-1-3.3-3.6-5.7-0.1-2 0.4-4.1-0.1-5.9-1.9-2.1-2-2.3-1.9-5.2l0.5-0.4c1.3 0.2 1.4 0.1 2.6-0.5-0.1 4.2-0.1 6.8 2 10.7l-0.8 0.8c0.2 1.3 0.1 1.3 0.9 2.3l0.9 0.5 0.7-0.6 1.7 0.5c2-0.2 0.5-3.6 1.9-5.6l0.5 0.9v2.4l-0.6 1.8c-0.8 2.3-0.6 2.8 0.1 5.1 4.4 8.4 10.5 9.8 13.5 15.7 0.4 1.1 0.9 2.3 1.1 3.5-0.5 2.7-1 5.2-0.3 7.9l0.7 0.7 1-0.6 0.3 0.3c2.8 2.8 7.2 4.7 11.1 4.3 7.6-0.8 7.8-7.4 7.2-13.3 0.4-5 0.5-13 0.1-18q-0.1-4 0.1-8c0.3-2.2 0-7.8-0.1-10.2l0.2-1c2.5 1.6 0.9 0.5 2.5 2.9l1-0.2c0.1 1.4 0 3.2-0.1 4.7 6.8 0 14.2-1.1 20.5-2.8 10.3-2.7 9.8-10.9 12.4-19 1.5-4.6 7.1-4 4.7-10.7l1.3 0.1 0.2-0.7c-0.6-1.5-14.6-13.7-17-15.1l-1.5 0.7c-4-2.8-5.2-7.1-10-7.8 0.1 0.7 0 0.9-0.1 1.5-3.4-0.3-4-0.2-7 1.2zm-23.6 108.1c0.5 1.4 0.1 0.7 1.5 1.8 1.5 0.4 2.9 0.3 4.3 0.6 8.2-0.4 24.4-5.5 31.5-5.7l-1-0.4c1.1-0.5 0.8-0.1 1.3-0.9-0.7-0.4-1.2-0.6-1.7-1.2 1.4-0.9 1.1-0.3 1.5-1.6-2.4-2.6-13.6-1.2-17.6-1.3-6.9-0.1-14.2 0-21 0.9-0.2 2.3-0.7 5.3 0.5 7.3zm4.1 14.6c-2 0.2-3.5 0.4-5.5 0.5l-0.2 1c2 1.3 3.3-0.7 5.8 2.4 2.2-0.8 6.7-1.3 9.3-1.9 6.7-1.4 13.4-2.7 20.1-4l0.7 0.7c0 2.4-2.6 3.9-3.2 6.2-5.7 0.4-11.2 0.2-16.9 0-1.4 0.6-1.4 0.6-2.5 1.5v1l0.3-1.1-0.4 1.1c3.6 1.2 9.4-1 11.5 0.2-0.8 0.2-1.4 0.4-2.3 0.6-2.5 0.1-9.9-0.2-11.3 1.2 0.9 3.8 8.8 4.1 11.9 3.5l1.3 0.6c1.3-0.1 1.2 0 2.4-0.6 0.9-1.5 0.7-0.7 0.8-2.4l1.1-1.5 0.2-0.2 0.3 0.7h0.3l0.5-0.8c0-1.1-0.3-1.4-0.8-2.4l-0.2-0.3c2-0.2 2.6-0.5 4.7 0.1 1.4-0.5 1.5-0.5 2.5-1.6l-0.3-0.8c0.6-0.6 1.1-1.1 1.7-1.7 0.6 0.6 0.3 0.5 1 0.5 1-0.7 1.6-1 2.1-2.2l-0.3-0.3-1.5 0.7c0.3-1.5 0.7-2.1-0.2-3.3l-0.8-0.2c0.5-2 0.9 0.8 1.2-2.9-8.4 1.5-25.3 5.2-33.3 5.7zm-2.3-6.4l-2.2 0.4 1.9 0.1c0.4 0.7 0.3 0.6 0.6 1.4l1.9 0.5q10.9-2.2 21.8-4.5c3.9-0.8 8.3-1.2 12-2.1 0.7-2 0.8-1.2 0.5-3.1-11.5 2.5-25.6 4.4-36.5 7.3zm25.8-22.7l3.5 1.6 1.3-0.2c-3-3.7-4-8.3-4.1-12.9l-0.4 0.1c0-1.6 0-2-0.2-3.6l0.1-0.5-1.1-0.4 0.7-0.3c0.8-0.7 0.8-1.8 1-3 4.8-2.6 9.8-5.4 14.8-7.4 0.8-0.2 0.5 0 0.8-0.6l-0.8-1.1c-4.7 0.8-9.4 1-12.7 4.8-0.6 0.7-2.4 3.1-2.9 3.4-6 3.3-4.3 12.8-2.2 18.1zm-19.9 34.2h-0.9c-1.4 0.8-1.3 0.5-1.7 1.6 0.7 0.9 2.1 1.4 3.3 2.5-0.6-1-1.2-1.8-1.6-2.9 1 0.1 2 0.4 2.7 0-1.1-1.2-0.8-0.6-1.8-1.2zm12.6-64.6l-0.1-0.6-0.6-0.3-0.9-3-0.5-0.3c-1.6 1.6-0.7 6.6-0.4 8.9l0.4-0.2c0.4-1.7 0.2-3.2 0.1-4.9l0.4-0.2 0.8 0.8zm33.2-0.7c1.3-0.9 2.3-1.7 3.5-2.7l1.3 0.1c1.3-0.9 1.3-0.8 2.2-2.1l-0.1-0.5-1.4 0.4 1.2-2.6c1.9-4.2 2.2-9 1.7-13.6 0 3.9-1.5 8.3-3.4 11.6-1 1.2-2.5 3.2-3.6 4.3-1 2-1.9 3-1.4 5.1zm0.7 4.9c0.1-1.3 0.3-2.4-0.4-3.4l-0.9-0.5c0.3 1.4 0.3 3.1 1.3 3.9zm-33.9 5.8c-2.4 3.5-1.3 11.1-1.5 15.4 0 0.7 0.4 0.9 0.9 1.3 0.9-0.3 0.5-0.1 1.2-1.4l0.1-0.4c-0.6-3-0.3-7.9-0.2-11-0.1-1.3-0.4-2.7-0.5-3.9zm8.2 23.8c0.8-0.1 1.8 0 2.4-0.4-0.5-0.6-0.2-0.4-0.7-0.6l-2.5 0.2-0.2 0.3zm14.2-20.8c0.7 1.3 0.6 1.2 1.9 1.5 0.8-3.6 7.5-5.3 7.7-9.3l-0.7-0.4c-2.9 3.6-6.3 5.4-8.9 8.2z"/><path class="b" d="m428.8 317.3c0.6 1.1 1 2.1 1.4 3.2 1.8 3.8 3.2 6.4 3.6 10.7 0 3.8-1.5 8.2-3.4 11.5-1 1.2-2.5 3.2-3.6 4.3-1 2-1.9 3-1.4 5.1-1.1 1.1-1.1 0.7-1.3 2l-0.5-0.8c-2.5-0.2-5.8 0.4-8.2 0.9l-0.3 0.4 0.1 0.2c-4.7 0.8-9.4 1-12.7 4.9-0.6 0.6-2.4 3-2.9 3.3-6 3.4-4.3 12.9-2.2 18.2-1.2-0.8-3.3-2.5-4.5-3.5-0.6-3-0.3-7.9-0.2-11-0.1-1.2-0.3-2.6-0.5-3.9 0-2.6 0-4.5 0.3-7l-0.3-3-0.1-0.6c0.1-1.7 0.2-3.5 0.2-5.2 7.2-8.8 17.9-1.7 26.3-9 7.3-6.4 3.2-12.9 9.8-20.3z"/><path class="c" d="m428.8 317.3c0.6 1.1 1 2.1 1.4 3.2-0.2 8.2 0.3 15.5-5.9 22-5.9 6.1-23.1 4.3-26.8 10.1-1.6 1.1-3.3 2.5-5 3.2l-0.3-3-0.1-0.6c0.1-1.7 0.2-3.5 0.2-5.2 7.2-8.8 17.9-1.7 26.3-9 7.3-6.4 3.2-12.9 9.8-20.3z"/><path class="d" d="m394.3 365.1c1.3-2.5 1.2-3.4 3.1-6 5.4-7.2 13-7 20.9-8.8 3.2-0.7 5.6-1.8 8.5-3.3-1 2-1.9 3-1.4 5.1-1.1 1.1-1.1 0.7-1.3 2l-0.5-0.8c-2.5-0.2-5.8 0.4-8.2 0.9l-0.3 0.4 0.1 0.2c-4.7 0.8-9.4 1-12.7 4.9-0.6 0.6-2.4 3-2.9 3.3-6 3.4-4.3 12.9-2.2 18.2-1.2-0.8-3.3-2.5-4.5-3.5-0.6-3-0.3-7.9-0.2-11 1.2-0.2 1.4-0.6 1.6-1.6z"/><path class="e" d="m397.5 352.6l0.8 0.7c0.1 1.2-3.3 5.5-4.2 6.9-0.1 1.7-0.5 3.4 0.2 4.9-0.2 1-0.4 1.4-1.6 1.6-0.1-1.2-0.3-2.6-0.5-3.9 0-2.6 0-4.5 0.3-7 1.7-0.7 3.4-2.1 5-3.2z"/><path class="f" d="m415.2 354.8l-0.1-0.2 0.3-0.4c2.4-0.5 5.7-1.1 8.2-0.9l0.5 0.8-0.2 1.7-0.3 1.8c-3 3.6-6.4 5.4-8.9 8.2-4.3 6.3 0.1 16.9-9.7 18.6l-0.6 0.1c-3-3.6-4.1-8.2-4.1-12.8h-0.4c0-1.6 0-2-0.2-3.5l0.1-0.5-1.1-0.5 0.7-0.2c0.8-0.7 0.8-1.9 1-3 4.8-2.6 9.8-5.4 14.8-7.4 0.8-0.3 0.5 0 0.8-0.7z"/><path class="g" d="m423.9 355.8l-0.3 1.8c-3 3.6-6.4 5.4-8.9 8.2-4.3 6.3 0.1 16.9-9.7 18.6 0.4-0.7 3.7-4 4.6-4.9 0.6-2.3 0.4-6.6 0.8-9.5 0.8-5.7 6.3-9.6 11-12.8 1-0.4 1.6-0.8 2.5-1.4z"/><path class="h" d="m415.2 354.8l-0.1-0.2 0.3-0.4c2.4-0.5 5.7-1.1 8.2-0.9l0.5 0.8-0.2 1.7c-0.9 0.6-1.5 1-2.5 1.4-8 1.2-20.2 4.9-21.1 14.5h-0.4c0-1.6 0-2-0.2-3.5l0.1-0.5-1.1-0.5 0.7-0.2c0.8-0.7 0.8-1.9 1-3 4.8-2.6 9.8-5.4 14.8-7.4 0.8-0.3 0.5 0 0.8-0.7z"/><path class="i" d="m370.8 389.9c6.8-0.9 14.1-1 21-0.9 4 0.1 15.2-1.3 17.6 1.3-0.4 1.3-0.1 0.7-1.5 1.6-3.1-0.6-28.5 5.7-35.9 5.8l-0.7-0.5c-1.2-2-0.7-5-0.5-7.3z"/><path class="j" d="m409.8 401.6c0.3 1.5 0.7 2.8 0.4 4.2l-0.8 0.8c-8.4 1.5-25.3 5.1-33.3 5.6-2 0.3-3.5 0.4-5.5 0.6-0.2-0.7-0.6-1.2-0.9-1.9 0.9-1.9 1.5-1.7 3.3-2.1l3-0.6q10.9-2.2 21.8-4.5c3.9-0.8 8.3-1.1 12-2.1z"/><path class="k" d="m369.7 410.9c0.9-1.9 1.5-1.7 3.3-2.1l1.3 0.8c1.7 1.2 0.8 1.9 1.8 2.6-2 0.3-3.5 0.4-5.5 0.6-0.2-0.7-0.6-1.2-0.9-1.9z"/><path class="j" d="m409.3 394.4c1.4 1.4 1.2 2.3 0.9 4.1-11.4 2.6-25.5 4.4-36.4 7.3l-2.2 0.4c-0.7-0.2-0.5-0.3-1.1-1.1-0.4-3 0.3-3.5 2.9-4.1l4.4-0.9c8.2-0.4 24.4-5.5 31.5-5.7z"/><path class="k" d="m371.6 406.2c-0.7-0.2-0.5-0.3-1.1-1.1-0.4-3 0.3-3.5 2.9-4.1-0.3 1.4-0.7 2.9-0.3 4.2l0.7 0.6z"/><path class="g" d="m376.2 416.2c2.2-0.9 6.7-1.4 9.3-1.9 6.7-1.5 13.4-2.8 20.1-4l0.7 0.6c0 2.5-2.6 3.9-3.2 6.2-5.7 0.4-11.2 0.3-16.9 0.1-2 0-4.5 0.1-6.6 0.2h-0.9c-1.1 0-1.7 0.1-2.6-0.5z"/><path class="l" d="m397.4 381.2c-2.1-5.3-3.8-14.8 2.2-18.2-0.6 1.9-0.7 2.3-0.9 4.2l1.1 0.5-0.1 0.5c-1 1.7-1.2 2.6-0.7 4.7h0.4l0.5-1.2h0.4c0 4.6 1.1 9.2 4.1 12.8l-1.3 0.3-3.5-1.6z"/><path class="m" d="m392.8 420.4c2.1 0 4.5-0.1 6.2 0.9l-1.1 1.5c-1.5 0.8-3 1.6-4.5 2.4-3.1 0.6-11.1 0.2-11.9-3.6 1.4-1.4 8.7-1 11.3-1.2z"/><path class="n" d="m430.4 342.7c0.5 1.3 0.5 1.2 1.7 2l-1.2 2.6-2 2.1c-1.2 1-2.2 1.9-3.5 2.7-0.5-2.1 0.4-3.1 1.4-5.1 1.1-1.1 2.7-3.1 3.6-4.3z"/><path class="j" d="m392.9 377.7c1.2 1 3.3 2.7 4.5 3.5l2.2 2 3.5 1.6c-2.2 0.4-3.7 0.2-5.9 0.2-0.9-0.7-2-1.6-2.9-2.3-1-1.8-1.2-2.6-1.5-4.6z"/><path class="g" d="m394.3 382.7c1.8 0.2 3.5 0.6 5.3 0.5l3.5 1.6c-2.2 0.4-3.7 0.2-5.9 0.2-0.9-0.7-2-1.6-2.9-2.3z"/><path class="o" d="m409 409.7c0.9 1.1 0.5 1.7 0.2 3.2l-1.3 1.3c-0.6 0.6-1.1 1.2-1.7 1.8-1 0.3-2.1 0.8-3.1 1.1 0.6-2.3 3.2-3.7 3.2-6.2l-0.7-0.6c1-0.3 2.3-0.5 3.4-0.6z"/><path class="p" d="m433.8 331.2c0.5 4.5 0.2 9.3-1.7 13.5-1.2-0.8-1.2-0.7-1.7-2 1.9-3.3 3.4-7.7 3.4-11.5z"/><path class="q" d="m399.7 368.2c0.2 1.5 0.2 1.9 0.2 3.5l-0.5 1.2h-0.4c-0.5-2.1-0.3-3 0.7-4.7z"/><path class="r" d="m395.6 289.6c3-1.4 3.6-1.5 7-1.2 4.3 3.3 4.8 6.1 10.3 7.5l1.3-0.2c0.9 1.1 1.4 1.5 2.4 2.4l3.4 3.4c2.2 1.9 6.1 5.4 8.4 6.9l1.3 1.3c2.4 6.7-3.2 6.1-4.7 10.7-2.6 8.1-2.1 16.3-12.4 19-6.3 1.7-13.7 2.8-20.5 2.8 0.1-1.5 0.2-3.3 0.1-4.7l0.1-0.4c-0.3-8.1 0.1-20.5 0.6-28.5-0.7-4.5-1.2-16 2.7-19zm14.6 12.6c1.9-2.8 0.2-2.5 4.1-3.7-1.1-1.8-8.2-1.1-10.2-1-6.8 7.1-4.1 8-2.3 16-0.1 1.3 1.9 7.6 2.3 10.1 1.1-0.1 1.5-0.7 2.4-1.4 0.5-1 0.2-0.5 1.3-1.2 0.1-0.5-1.9-12.6-2-14.7 0.9-1.5 2.7-3.7 4.4-4.1zm-13.4 8.6l0.1-0.5c0.4-2.1-0.2-4.7 0.1-7.1 0.7-4.5 3.4-7.4 3.6-11.9-5.6 2.6-6.7 5.5-7.3 11.4 0.6 2.1 1.6 7 3.5 8.1z"/><path class="s" d="m404.1 297.5c2-0.1 9.1-0.8 10.2 1-3.9 1.2-2.2 0.9-4.1 3.7-1.7 0.4-3.5 2.6-4.4 4.1-0.3 1.1-0.4 1.4-0.3 2.5-1.1 1.4-2.8 3.3-3.7 4.7-1.8-8-4.5-8.9 2.3-16z"/><path class="t" d="m405.8 306.3c0.1 2.1 2.1 14.2 2 14.7-1.1 0.7-0.8 0.2-1.3 1.2-0.9 0.7-1.3 1.3-2.4 1.4-0.4-2.5-2.4-8.8-2.3-10.1 0.9-1.4 2.6-3.3 3.7-4.7-0.1-1.1 0-1.4 0.3-2.5z"/><path class="u" d="m395.6 289.6c3-1.4 3.6-1.5 7-1.2 4.3 3.3 4.8 6.1 10.3 7.5l1.3-0.2c0.9 1.1 1.4 1.5 2.4 2.4l-2.3 0.4c-1.1-1.8-8.2-1.1-10.2-1-6.8 7.1-4.1 8-2.3 16-0.1 1.3 1.9 7.6 2.3 10.1 1.1-0.1 1.5-0.7 2.4-1.4 2.2 0.4 2.9 1.5 2.3 3.8-1.3 4.9-4.8 8-9.2 10-1 1.1-1.2 1.1-2.6 1.8-1.5 0.3-2.7 0.6-4.2 0.2l-0.5-0.9c-0.3-8.1 0.1-20.5 0.6-28.5-0.7-4.5-1.2-16 2.7-19zm1.2 21.2l0.1-0.5c0.4-2.1-0.2-4.7 0.1-7.1 0.7-4.5 3.4-7.4 3.6-11.9-5.6 2.6-6.7 5.5-7.3 11.4 0.6 2.1 1.6 7 3.5 8.1z"/><path class="v" d="m406.5 322.2c2.2 0.4 2.9 1.5 2.3 3.8-1.3 4.9-4.8 8-9.2 10-1.7 0.5-4.4 1.6-5.9 0.7 0.5-1.1 5.9-4.9 7.7-6.6 0.5-2.2 0.8-5.2 2.7-6.5 1.1-0.1 1.5-0.7 2.4-1.4z"/><path class="v" d="m399.3 315.7c0.7 2.8 2.3 13.5-0.7 14.9-1.4-0.4-0.9 0-1.8-1.2-0.8-3.8 2.4-4.6 0.8-11.7 0.8-0.8 1-1.1 1.7-2z"/><path class="v" d="m396.9 310.3l0.8-0.4c1 2.2 0.9 3.6 1.6 5.8-0.7 0.9-0.9 1.2-1.7 2-0.8-2.5-2-4.7-0.8-6.9z"/><path class="w" d="m428.4 308.4l1.3 1.3c2.4 6.7-3.2 6.1-4.7 10.7-2.6 8.1-2.1 16.3-12.4 19-6.3 1.7-13.7 2.8-20.5 2.8 0.1-1.5 0.2-3.3 0.1-4.7l0.1-0.4 0.5 0.9c1.5 0.4 2.7 0.1 4.2-0.2 3.7 0 8.2-0.5 11.5-1.7 10.2-3.6 5.5-13.4 8.7-20.7 1.5-3.4 6.6-3.7 9.6-4.9 1.3-0.4 1.1-0.7 1.6-2.1z"/><path class="v" d="m416.6 298.1l3.4 3.4q-0.4 0.3-0.8 0.6c-2.2-0.2-7.1 0.2-9 0.1 1.9-2.8 0.2-2.5 4.1-3.7z"/><path class="h" d="m347.3 329c2.1-6.6 6.1-8.8 11.5-13.2 0.7-0.6 1-0.3 1.7-0.2l0.1 0.6-1.9 0.9c-1.3 1.3-2 2.8-2.3 4.7h0.5c1.7-2.2 2.3-3.6 4.8-4.6 4.8-0.6 11.2 0.6 14.7-0.7l2.1-0.5c2.6 2.1 9.6 7.1 9.9 9.9 0.3 2.5 0.3 3.8 0.3 6.3v2.6l-0.2 1-0.4 2.1c-0.8 0.2-0.7 0.2-1.6 0.2-2 0-3.5 0.2-5.5 0.5l-0.9-0.8c-2.5-0.4-2.1 0.1-4.2 0l-0.4-0.8-3.7-0.1-1.8 0.1h-1.4c-1.5-1.2-2.9-3-4.2-4.4-1.9-1.4-6.2 0.7-9.5-0.8-1-1.3-0.6-1-0.6-3.1-0.6 0.9-0.7 0.8-1 1.7l-0.2 0.2c-1 0.1-1 0.2-2 0 0.2-0.8 0.2-1.5 0.2-2.4-2 1.1-1.7 2-4 0.8zm26.3-3.8c-1.5-0.4-7.5-0.9-8.7-0.3l2.1 0.9 0.7-0.3c3.5 0.5 10.5 0.2 11.8 0.6l-0.5-2.4c-2 1-3.1 1.8-5.4 1.5zm-0.8 4.7c1.7 0.5 2.1 0.7 3.8 0.7l1.6-1.5c-2.9 0-6-0.1-9 0 1.3 0.2 2.5 0.3 3.6 0.8z"/><path class="x" d="m373.6 325.2c2.3 0.3 3.4-0.5 5.4-1.5l0.5 2.4c-1.3-0.4-8.3-0.1-11.8-0.6 2.3-0.5 3.6-0.4 5.9-0.3z"/><path class="y" d="m369.2 329.1c3-0.1 6.1 0 9 0l-1.6 1.5c-1.7 0-2.1-0.2-3.8-0.7-1.1-0.5-2.3-0.6-3.6-0.8z"/><path class="z" d="m364.9 324.9c1.2-0.6 7.2-0.1 8.7 0.3-2.3-0.1-3.6-0.2-5.9 0.3l-0.7 0.3z"/><path class="A" d="m372.8 329.9c1.7 0.5 2.1 0.7 3.8 0.7 2.6 2.8 3.3 0.3 5.6 1.8l0.2 0.7c2.6 0 2.5 0.2 4.4-1l1.9 0.1v2.6l-0.2 1-0.4 2.1c-0.8 0.2-0.7 0.2-1.6 0.2-2 0-3.5 0.2-5.5 0.5l-0.9-0.8c-2.5-0.4-2.1 0.1-4.2 0l-0.4-0.8-3.7-0.1-1.8 0.1h-1.4c-1.5-1.2-2.9-3-4.2-4.4 4.4-2 6.9 1.3 8.4-2.7z"/><path class="h" d="m372.8 329.9c1.7 0.5 2.1 0.7 3.8 0.7 2.6 2.8 3.3 0.3 5.6 1.8l0.2 0.7c-2.5 0.2-8.6-0.4-10.4 1.4-0.4 0.5-0.7 0.8-0.6 1.4 0.1 0.7 0.1 0.4 0.4 1l-1.8 0.1h-1.4c-1.5-1.2-2.9-3-4.2-4.4 4.4-2 6.9 1.3 8.4-2.7z"/><path class="r" d="m375.5 337c2.6-0.1 8.9-1 10.6 0 0.4 0.7 0.4 0.4 0.4 1.1-2 0-3.5 0.2-5.5 0.5l-0.9-0.8c-2.5-0.4-2.1 0.1-4.2 0z"/><path class="r" d="m354.3 328.7c3.2 0.1 12.1 1.1 13.8 0.8l0.3-0.5 0.8 0.1c1.3 0.2 2.5 0.3 3.6 0.8-1.5 4-4 0.7-8.4 2.7-1.9-1.4-6.2 0.7-9.5-0.8-1-1.3-0.6-1-0.6-3.1z"/><path class="r" d="m378.2 329.1l1 0.2c0.8 0.4 1.2 0.5 1.9 1 2.1 2.4 2.9 1 5.7 1.8-1.9 1.2-1.8 1-4.4 1l-0.2-0.7c-2.3-1.5-3 1-5.6-1.8z"/><path class="w" d="m388.4 325.9c0.3 2.5 0.3 3.8 0.3 6.3l-1.9-0.1c-2.8-0.8-3.6 0.6-5.7-1.8 2.5-0.5 4.5-0.7 7-1l0.1-0.7z"/><path class="v" d="m379 323.7l-0.2-0.4c1.1-0.5 1.6-0.3 2.7-0.2 1 0.8 1.3 1.5 2.2 2.2l-1 1.1-1.7 1.8c-1.1-0.7-0.8-0.6-1.5-2.1z"/><path class="c" d="m382.7 326.4c0.9 0.8 2 1.7 3 2.2 1.2-0.1 1.1-0.2 2.3 0.1l0.2-0.1-0.1 0.7c-2.5 0.3-4.5 0.5-7 1-0.7-0.5-1.1-0.6-1.9-1 0.9-0.4 0.9-0.5 1.8-1.1z"/><path class="r" d="m367 325.8c-2.2 0.3-2.1 0.6-3 2.2-0.9 0.7-1.7 0.5-3 0.5 0-1.5 2-3.4 3.4-3.9l0.5 0.3z"/><path class="v" d="m356.9 321.8c0 1.6-1 2.6-2.2 3.8q-1 1-2 1.9l-1.2-0.2c0.1-1.5 3-4.5 4.6-4.6l0.3-0.9z"/><path class="r" d="m383.7 325.3c1.6 0.9 1.3 0.4 2 1.8v1.5c-1-0.5-2.1-1.4-3-2.2z"/><path class="r" d="m352.4 311.1q0.3-0.3 0.6-0.6c4.1-4.6 4.9-10.2 11.1-13.3 2.7-1.4 5.6-1.3 8.1-2.9 4.1-3.4 2.4-4.5 7.9-6.2-1.4 3.3-3.8 3-3.4 5.8-1.2 1.6-1.5 2.1-2.3 3.9 0.5 0.9 1.4 2.2 1.8 3.1 1.6 2.8 3.6 3.5 5.4 6 1.3 1.7-0.2 4.7 1 6.4 1.8 3 6.2 2.6 6.2 6.7l-0.5 0.8c-2.2 0-2.9-2.5-4.4-3.8-2.6-2.1-4.6-3.5-6.4-6.5l0.4-4.5c-2.5-2.4-8.7-5.7-12.1-5-1.2 1.3-1 2.9-0.2 4.4-0.3 1.2-0.1 1-0.6 2-1.5 0.9-3.2 0-5.2 0.2l-0.6 1.7c0.8 1.7 3.8 1 5.7 0.9-0.8 1.9-1 2.3-1.3 4.3-2-0.5-3.8-0.8-5.8-1.1-1.6-0.6-2.8 0-4.5 0.5l-0.2-0.4c-0.6-0.9-0.5-1.4-0.7-2.4z"/><path class="h" d="m353.1 313.5c0.7-1.5 0.9-2.2 2.2-2.9 1.2 0 0.9-0.2 2 1q0.4 0.5 0.9 1c1 0.1 1.6 0 2.4 0.5-1.1 0.2-1.7 0.3-2.8 0.3-1.6-0.6-2.8 0-4.5 0.5z"/><path class="u" d="m380.1 288.1c0.7-0.2 2.2-0.4 2.9-0.6 2.8 0.9 3.3 1.3 5.2 3.5 1.4 5 1.4 13.2 0.6 18.4 0 1.6 0.2 4.6-0.7 5.8-3.4-0.6-4.3-9.2-3.8-12.2 0.6-1.9 0.7-2.2 0.4-4.1-0.8-1-0.2-0.7-1.6-0.9-1.9 0.9-2.6 2-1.6 3.8l0.5 0.1c0.2-1.2 0.4-1.8 0.7-3l0.6-0.3 0.5 0.4c0 1.3-0.1 1.4-0.6 2.6l-0.2 0.4c-0.3 1-0.3 1-1 2-2.3 0.6-2.9-2.3-3.6-4 0.9-3.5 0.3-3.4-1.7-6.1-0.4-2.8 2-2.5 3.4-5.8z"/><path class="h" d="m383.1 287.5c2.7 0.9 3.2 1.3 5.1 3.5 1.4 5 1.4 13.2 0.6 18.4-0.8-5.4 0.9-10.8-1.8-16-1.2-2.3-2.9-3.6-4-5.9z"/><path class="j" d="m388.5 354c0.4 5 0.3 13-0.1 18 0.6 5.9 0.4 12.5-7.2 13.3-3.9 0.4-8.3-1.5-11.1-4.3l1.2-1q1.1 0.3 2.2 0.6c1-0.6 0.7-0.5 1.2-1.9l0.3 1.4c1 0.5 0.5 0.3 1.8 0.2 1.8 0 2.1 0.3 3.3-0.5 0.3-1.4 0.1-2.4 0-3.8 1.8 0.4 1.5 0 2.6 1.1 0.2 0.8 0.3 1.5 0.5 2.3l-0.5 1.3 0.3 0.6c0.7 0 0.7 0 1.4-0.1 1.4-2.9 0.7-17 0.6-21 1.1-0.6 1.7-1 2.6-1.7 1-1.4 0.8-2.8 0.9-4.5z"/><path class="f" d="m388.5 354c0.4 5 0.3 13-0.1 18-0.1 2.1-0.1 4-1 5.8v-0.2l-0.2 0.5c-0.5 1.6-0.6 2.2-1.9 3.2l-0.9-0.1c1.4-2.9 0.7-17 0.6-21 1.1-0.6 1.7-1 2.6-1.7 1-1.4 0.8-2.8 0.9-4.5z"/><path class="g" d="m353.7 348.4c1 0.9 1 0.9 2.3 1.5 0.2 1.6 0 2.1 0.9 3 2.4-0.4 2.1-1.1 4.9-1 3 0.4 3.6 1.1 6 3 0.1 4.5-0.2 9.7 0 14l-0.5 0.3c-3-5.9-9.1-7.3-13.5-15.7-0.7-2.3-0.9-2.8-0.1-5.1z"/><path class="j" d="m353.7 348.4c1 0.9 1 0.9 2.3 1.5 0.2 1.6 0 2.1 0.9 3 2.4-0.4 2.1-1.1 4.9-1-4 3.3-3.4 2.2-8 1.6-0.7-2.3-0.9-2.8-0.1-5.1z"/><path class="r" d="m347.3 329c2.3 1.2 2 0.3 4-0.8 0 0.9 0 1.6-0.2 2.4 1 0.2 1 0.1 2 0l0.2-0.2 0.1 1.9 0.3 1.9q0.2 0.1 0.5 0.3c1 0.7 0.9 0.8 2.1 1l-0.5 0.8-0.3 0.3c-1.1 1.3-4.4 5.1-4.7 6.3l-0.6-0.1v0.6c1.7 1.4 1.8 3.5 1.7 5.5l-1.7-0.5-1.7-3c-2.1-3.9-2.1-6.5-2-10.7l0.4-2c-0.1-1.1 0.2-2.6 0.4-3.7z"/><path class="g" d="m346.5 334.7l0.4-2c0.7 1.4 1.1 3.5 1.8 4.2l-0.2 1.6c1.9 2.1 2.3 1.4 1.7 4.3v0.6c1.7 1.4 1.8 3.5 1.7 5.5l-1.7-0.5-1.7-3c-2.1-3.9-2.1-6.5-2-10.7z"/><path class="w" d="m353.4 332.3l0.3 1.9q0.2 0.1 0.5 0.3c1 0.7 0.9 0.8 2.1 1l-0.5 0.8-0.3 0.3c-1.1 1.3-4.4 5.1-4.7 6.3l-0.6-0.1c0.6-2.9 0.2-2.2-1.7-4.3l0.2-1.6c0.4 1.2 0.1 0.8 0.9 1.6 1-0.5 1-0.9 1.7-2 2.2-1.7 1.9-1.5 2.1-4.2z"/><path class="A" d="m353.1 330.6l0.2-0.2 0.1 1.9c-0.2 2.7 0.1 2.5-2.1 4.2-0.6-1.3-0.7-1.5-0.7-3 0.6-1.5 1.2-1.8 2.5-2.9z"/><path class="B" d="m380.6 359.7q0.3 1.3 0.6 2.5c0.9 0.5 1.9 0.2 3 0.1 0 1.9 0 4.3 0.1 6.1 0.1 3.7 0.5 7.8-1.1 11-0.2-0.8-0.3-1.5-0.5-2.3-1.1-1.1-0.8-0.7-2.6-1.1l-0.4-0.7c-0.6 0.8-1.6 2.1-2.1 2.9l-0.4-0.7c-0.1-2.1-0.1-4.9-0.2-7l2.4-0.3 0.5 1.1q0.3-5.8 0.7-11.6z"/><path class="e" d="m377 370.5l2.4-0.3 0.5 1.1-0.8 0.3c-0.6 1.5-0.1 2.3 0.6 3.7-0.6 0.8-1.6 2.1-2.1 2.9l-0.4-0.7c-0.1-2.1-0.1-4.9-0.2-7z"/><path class="j" d="m368.3 339.9c3 2.1 1.5 0.6 4.2 0.2 0.4 3.4-1.3 1.9-1.1 5.1 0.6 1 1.1 1.3 1.4 2.4l-0.3 0.9 0.2 0.3c-0.1 1.6-0.1 1.7 0.2 3.2l-1.1 1.3c-1.8-1.3-3.1-2.7-4.6-4.2q-0.3-2-0.5-4.1c-2.5-0.3-3.7 0-4.7-2.4 0.2-0.1 1.1-1.5 1.3-1.8 0.2 0.1 3.4-0.1 3.9-0.2l-0.8-0.2z"/><path class="f" d="m354.3 344.2l0.2-0.7c1.7-1.1 2.9-1.5 4.9-1.7v0.4c0.2 1.2 0.5 2.5 0.7 3.7l0.5 0.4 1.7-0.2c1.7 0 1.4-0.3 2.4 0.6 0.8 2.1 1.1 3 2.6 4.8l-0.8 1c-1.4-1-1.3-1-3-1.2-3.9 0.4-4.1 0.5-7.5-1.4-1.3-0.6-1.3-0.6-2.3-1.5l0.6-1.8z"/><path class="r" d="m354.3 344.2l0.2-0.7c1.7-1.1 2.9-1.5 4.9-1.7v0.4c0.2 1.2 0.5 2.5 0.7 3.7-2.9-0.3-3 1.6-5.8 0.7z"/><path class="j" d="m362.3 346.1c1.7 0 1.4-0.3 2.4 0.6 0.8 2.1 1.1 3 2.6 4.8l-0.8 1c-1.4-1-1.3-1-3-1.2-0.9-1.1-2-2.1-3-3.1 1.2-0.5 1.9-0.5 2.8-1.5z"/><path class="C" d="m367.3 351.5l0.3 0.3c4 4.3 6.1 3.4 5.4 10.4-0.5 4.6 1.1 12.3-1.8 16-0.3-2.5-0.7-5.8-1.1-8.6l-0.1-0.4-1-0.3c0-0.6 0.1-0.8 0.3-1.3l1.4-0.5v-1c-2.7-2.1-1.5-7.6-1.5-11.2q-1.3-1.2-2.7-2.4z"/><path class="w" d="m380.5 347c1.2-1.6 2.1-4.1 3-5l0.5 0.2 0.1 2.1c0.1 0.9 0.2 3 0.4 3.8l-0.3 14.2c-1.1 0.1-2.1 0.4-3-0.1q-0.3-1.2-0.6-2.5l-0.2-1.2c0-3.8-0.1-7.6 0.1-11.5z"/><path class="A" d="m380.4 358.5l0.5-0.5c1.2-0.1 1.7-0.2 2.9 0.1 0.3-3.3-1.7-12.2 0.3-13.8 0.1 0.9 0.2 3 0.4 3.8l-0.3 14.2c-1.1 0.1-2.1 0.4-3-0.1q-0.3-1.2-0.6-2.5z"/><path class="d" d="m372.9 352c4.3 3.6 3.6 3.8 3 9.2 0.2 2.2 0.3 4.1 0.3 6.3 0.1 2.7-0.3 8.3 0 10.3l0.5 0.4 0.5-0.7 0.4 0.7-0.8 2.1c-1.3 0.1-0.8 0.3-1.8-0.2l-0.3-1.4c-1.6-4.7-0.9-12.1-0.7-17.1v-5.9l-2.2-2.4z"/><path class="f" d="m372.9 352c4.3 3.6 3.6 3.8 3 9.2-0.1-1.6-0.2-2.7-0.4-4.2l-0.4-0.3c-0.8 2.1-0.5 3.2-1.1 4.9v-5.9l-2.2-2.4z"/><path class="j" d="m375.9 337.8c2.1 0.1 1.7-0.4 4.2 0 0.5 1.9 1.6 4.3 1.4 6.1-0.7 1.1-1.3 1.3-2.7 1.6-0.7-0.3-0.8-0.2-1.7-0.3l-1.3-0.7c-0.8-1.4-0.5-1-0.4-2.8-1.3-0.3-0.7-0.1-1.7-1.2l-1.2-0.4c-2.7 0.4-1.2 1.9-4.2-0.2-0.6-0.3-0.3-0.1-0.7-0.8l0.5-0.8c1.4-0.2 2.8-0.4 4.2-0.6z"/><path class="A" d="m375.9 337.8c2.1 0.1 1.7-0.4 4.2 0-2 1.3-1.5 2-4.7 3.9-1.3-0.3-0.7-0.1-1.7-1.2l-1.2-0.4c-2.7 0.4-1.2 1.9-4.2-0.2-0.6-0.3-0.3-0.1-0.7-0.8l0.5-0.8c1.4-0.2 2.8-0.4 4.2-0.6z"/><path class="D" d="m365.6 305.4c2.2-0.3 7.3-1.5 8.8-0.1 3.2 3-0.9 6.8 4.1 10.7l-2.1 0.5c-1.1-1-1.2-1-2.5-1.5l0.2-0.7c-0.5-1.3-0.9-3.8-1.6-4.7-2.2-2.9-4.4-1.5-7.5-1.5-2.1 0-3.2-0.1-5.2-0.5 2-0.2 3.7 0.7 5.2-0.2 0.5-1 0.3-0.8 0.6-2z"/><path class="B" d="m384.1 344.3c0.8-0.5 0.9-0.5 1.2-1.4l0.9-0.4c0.8 1.5 1.2 2.5 2.4 3.5q-0.2 4-0.1 8c-0.1 1.7 0.1 3.1-0.9 4.5-0.9 0.7-1.5 1.1-2.6 1.7l-0.1-3.6c0.4-2 0.1-6.5-0.1-8.6l-0.3 0.1c-0.2-0.8-0.3-2.9-0.4-3.8z"/><path class="d" d="m386.5 338.1c0.9 0 0.8 0 1.6-0.2l0.4-2.1c0.1 2.4 0.4 8 0.1 10.2-1.2-1-1.6-2-2.4-3.5l-0.9 0.4c-0.3 0.9-0.4 0.9-1.2 1.4l-0.1-2.1-0.5-0.2c-0.9 0.9-1.8 3.4-3 5-0.9-0.5-1-0.8-1.7-1.5 1.4-0.3 2-0.5 2.7-1.6 0.2-1.8-0.9-4.2-1.4-6.1l0.9 0.8c2-0.3 3.5-0.5 5.5-0.5z"/><path class="d" d="m373.7 340.5c1 1.1 0.4 0.9 1.7 1.2-0.1 1.8-0.4 1.4 0.4 2.8l1.3 0.7c1.1 1.5 1.8 2 1.9 3.8l-0.3 0.8-0.9 0.1c-0.4-1.3-0.6-2-0.9-3.3l-0.4-0.1c-0.9 1.4-1 1.1-1 2.5 1.1 1.8 1.1 1.7 3.3 2.4 0.9 1.2 0.6 2.1 0.4 3.8-1.1-0.6-0.5-0.4-2 0.1v-1.7c-1.8-1.6-3.7-4.1-4.5-4.8l-0.2-0.3 0.3-0.9 0.8 0.3 0.6-0.4c0.5-2.5 0.1-4.6-0.5-7z"/><path class="E" d="m359.8 307.6c2 0.4 3.1 0.5 5.2 0.5 3.1 0 5.3-1.4 7.5 1.5 0.7 0.9 1.1 3.4 1.6 4.7-1.3-0.1-1.2 0.1-2.3-0.4-1.5-4.5-2.6-4-6.9-3.7-1.9 0.1-4.9 0.8-5.7-0.9z"/><path class="F" d="m377.1 345.2c0.9 0.1 1 0 1.7 0.3 0.7 0.7 0.8 1 1.7 1.5-0.2 3.9-0.1 7.7-0.1 11.5l0.2 1.2q-0.4 5.8-0.7 11.6l-0.5-1.1c0.3-1.8 0.3-2.2 0-4q-0.1-5.5-0.2-11c0.2-1.7 0.5-2.6-0.4-3.8-2.2-0.7-2.2-0.6-3.3-2.4 0-1.4 0.1-1.1 1-2.5l0.4 0.1c0.3 1.3 0.5 2 0.9 3.3l0.9-0.1 0.3-0.8c-0.1-1.8-0.8-2.3-1.9-3.8z"/><path class="G" d="m356 349.9c3.4 1.9 3.6 1.8 7.5 1.4 1.7 0.2 1.6 0.2 3 1.2q1.4 1.2 2.7 2.4c0 3.6-1.2 9.1 1.5 11.2v1l-1.4 0.5c-0.2 0.5-0.3 0.7-0.3 1.3h-1.2c-0.2-4.3 0.1-9.5 0-14-2.4-1.9-3-2.6-6-3-2.8-0.1-2.5 0.6-4.9 1-0.9-0.9-0.7-1.4-0.9-3z"/><path class="w" d="m360.7 333.1c4.1-1.2 4.1 3.9 7.4 5.2l-0.5 0.8c0.4 0.7 0.1 0.5 0.7 0.8l-1.9 0.5c-0.5-1.2-4.3-5.2-5.7-5.6-2.2-0.2-2.4 0-4.4 0.7-1.2-0.2-1.1-0.3-2.1-1 2.4-1.9 3.4-1.5 6.5-1.4z"/><path class="A" d="m354.2 334.5c2.4-1.9 3.4-1.5 6.5-1.4l0.7 0.4-0.2 1.1-0.5 0.2c-2.2-0.2-2.4 0-4.4 0.7-1.2-0.2-1.1-0.3-2.1-1z"/><path class="H" d="m364.9 310.2c4.3-0.3 5.4-0.8 6.9 3.7 1.1 0.5 1 0.3 2.3 0.4l-0.2 0.7c-6.2 1.1-3.7-2.1-10.3-0.5 0.3-2 0.5-2.4 1.3-4.3z"/><path class="B" d="m355.8 336.3c2.2-0.2 3.6-0.6 5.4 0.1 1.2 1.1 1.8 2.8 2.1 4.4-0.2 0.3-1.1 1.7-1.3 1.8-1.3-0.8-1.3-0.7-2.6-0.4v-0.4c-0.4-1.5-0.2-1.4-1.1-2.4-1-0.2-1.6-0.3-2.5-0.8l-0.3-2z"/><path class="A" d="m355.8 338.6c0.9 0.5 1.5 0.6 2.5 0.8 0.9 1 0.7 0.9 1.1 2.4-2 0.2-3.2 0.6-4.9 1.7l-0.2 0.7-0.5-0.9c-1.4 2 0.1 5.4-1.9 5.6 0.1-2 0-4.1-1.7-5.5v-0.6l0.6 0.1c4.4-0.9 2.7-3.5 5-4.3z"/><path class="g" d="m367.8 368.9h1.2l1 0.3 0.1 0.4c0.4 2.8 0.8 6.1 1.1 8.6l0.1 1.8-1.2 1-0.3-0.3c-0.5-1.7-1-5.9-1.4-8-0.2-1.2-0.7-2.4-1.1-3.5z"/><path class="I" d="m372.7 348.8c0.8 0.7 2.7 3.2 4.5 4.8v1.7c-0.3 2.7 0.1 5.3 0 8l-0.2 4.2h-0.8c0-2.2-0.1-4.1-0.3-6.3 0.6-5.4 1.3-5.6-3-9.2-0.3-1.5-0.3-1.6-0.2-3.2z"/><path class="A" d="m352.4 311.1c0.2 1 0.1 1.5 0.7 2.4l0.2 0.4 0.1 0.8 1.3 1c-0.4 2.2-2.6 3.5-4.7 2.6l-0.4-0.9c0.2-2.4 1.4-4.3 2.8-6.3z"/><path class="w" d="m377.2 355.3c1.5-0.5 0.9-0.7 2-0.1q0.1 5.5 0.2 11c-2.4-0.5-1.9-0.5-2.2-2.9 0.1-2.7-0.3-5.3 0-8z"/><path class="J" d="m384.3 368.4c0.5-3.6-0.1-7.6 0.6-11.8l0.1 3.6c0.1 4 0.8 18.1-0.6 21-0.7 0.1-0.7 0.1-1.4 0.1l-0.3-0.6 0.5-1.3c1.6-3.2 1.2-7.3 1.1-11z"/><path class="K" d="m374.4 297.8c0.8-1.8 1.1-2.3 2.3-3.9 2 2.7 2.6 2.6 1.7 6.1-1 0.2-1.5 0.2-2.2 0.9-0.4-0.9-1.3-2.2-1.8-3.1z"/><path class="d" d="m377.2 363.3c0.3 2.4-0.2 2.4 2.2 2.9 0.3 1.8 0.3 2.2 0 4l-2.4 0.3v-3z"/><path class="L" d="m383 302l0.2-0.4c0.5-1.2 0.6-1.3 0.6-2.6l-0.5-0.4-0.6 0.3c-0.3 1.2-0.5 1.8-0.7 3l-0.5-0.1c-1-1.8-0.3-2.9 1.6-3.8 1.4 0.2 0.8-0.1 1.6 0.9 0.3 1.9 0.2 2.2-0.4 4.1z"/><path class="M" d="m376.2 367.5h0.8v3c0.1 2.1 0.1 4.9 0.2 7l-0.5 0.7-0.5-0.4c-0.3-2 0.1-7.6 0-10.3z"/><path class="N" d="m384.5 348.1l0.3-0.1c0.2 2.1 0.5 6.6 0.1 8.6-0.7 4.2-0.1 8.2-0.6 11.8-0.1-1.8-0.1-4.2-0.1-6.1z"/><path class="O" d="m355.5 336.6l0.3 2c-2.3 0.8-0.6 3.4-5 4.3 0.3-1.2 3.6-5 4.7-6.3z"/><path class="O" d="m356.4 321.8c0.3-1.9 1-3.4 2.3-4.7 1.5 0.3 1.5 0.3 3 0.1-2.5 1-3.1 2.4-4.8 4.6z"/><path class="P" d="m370 337l1.8-0.1 3.7 0.1 0.4 0.8-3.6-0.1z"/></svg>